# xmcd
# 
# Track frame offsets:
#     180
#     12397
#     26618
#     41037
#     59982
#     70334
#     87864
#     103872
#     115172
#     129133
#     144647
#     157593
#     172012
#     184278
#     195100
#     206639
#     221285
#     234623
#     247953
#     260711
# 
# Disc length: 3629
# 
# Revision: 1
# Processed by: cddbd v1.5.2PL0 Copyright (c) Steve Scherf et al.
# Submitted via: fre:ac v1.0.27
# 
DISCID=1e0e2b14
DTITLE=Various Artist - Jazz over 7 hours of wonderfull Jazz CD5
DYEAR=2005
DGENRE=Jazz
TTITLE0=Django Reinhardt - Montmartre (Stewart)
TTITLE1=Count Basie - Love Jumped Out (Clayton)
TTITLE2=Glenn Miller - The Story Of A Starry Night (Hoffman/Curtis/Livingston)
TTITLE3=Artie Shaw - Someones Rocking My Dreamboat (E. Scott/O. Rene/L. Rene)
TTITLE4=Artie Shaw - Beyond The Blue Horizon (L. Robin/R. Whiting/W. Harling)
TTITLE5=Glenn Miller - Always In My Heart (Gannon/Lecuona)
TTITLE6=Artie Shaw - Blues In The Night (H. Arlen/J. Mercer)
TTITLE7=Sidney Bechet - Bechet Parades. The Blues (St. Louis Blues) (Handy)
TTITLE8=Django Reinhardt - Moppin' The Bride (Reinhardt)
TTITLE9=Louis Armstrong - Mahogany Hall Stomp (Williams)
TTITLE10=Charlie Parker - I'm In The Mood For Love (McHugh/Fields)
TTITLE11=Nat King Cole - Orange Colored Sky (Delugg/Stein)
TTITLE12=Charlie Parker - Out Of Nowhere (Green/Heyman)
TTITLE13=Les Brown - - Green Eyes (Utrera/Menendez)
TTITLE14=Les Brown - Love Letters In The Sand (Coots/Kenny)
TTITLE15=Peggy Lee - Easy Living (Robin/Rainger)
TTITLE16=Peggy Lee - Whee Baby (Lee/Larson)
TTITLE17=Nat King Cole - You Stepped Out 0f A Dream (Kahn/Brown)
TTITLE18=Peggy Lee - Be Anything (But Be Mine) (Gordon)
TTITLE19=Les Brown - Billboard March (Brown)
EXTD=YEAR: 2005
EXTT0=
EXTT1=
EXTT2=
EXTT3=
EXTT4=
EXTT5=
EXTT6=
EXTT7=
EXTT8=
EXTT9=
EXTT10=
EXTT11=
EXTT12=
EXTT13=
EXTT14=
EXTT15=
EXTT16=
EXTT17=
EXTT18=
EXTT19=
PLAYORDER=
